<?xml version="1.0" encoding="UTF-8"?>
<svg viewBox="0 0 407 299.51999" xmlns="http://www.w3.org/2000/svg" xmlns:xlink="http://www.w3.org/1999/xlink">
 <defs>
  <filter id="c">
   <feGaussianBlur stdDeviation="6.37282"/>
  </filter>
 </defs>
 <g transform="translate(-5.2143 -55.929)">
  <path d="m31.104 341.86 132.67-0.37746c71.647-323.89 203.28 28.209 243.86-258.04l-66.486 2.1028c-8.9006 202.54-208.26-66.805-310.04 256.31z" fill-rule="evenodd" filter="url(#c)" opacity=".75" stroke="#000" stroke-width="1.1668"/>
  <path d="m5.819 327.04 144.34-0.90469c65.433-330.52 201.75 30.602 243.31-269.6l-75.055 2.7141c-6.6315 207.32-207.85-73.623-312.59 267.79z" fill-rule="evenodd" stroke="#000" stroke-width="1.2093"/>
  <path d="m12.105 319.78 132.67-0.37746c71.647-323.89 203.28 28.209 243.86-258.04l-66.486 2.1028c-8.9006 202.54-208.26-66.805-310.04 256.31z" fill="#fff" fill-rule="evenodd" stroke="#000" stroke-width="1.1668"/>
  <path d="m17.869 321.3 118.33-1.3317c67.88-328.3 213.83 15.915 248.12-259.63l-57.595 1.0425c-11.554 215.97-203.39-61.615-308.86 259.92z" fill-rule="evenodd" stroke="#000" stroke-width="1.0491"/>
  <path id="b" d="m319.26 73.943 68.414-0.4852" fill="none" stroke="#000" stroke-width="8"/>
  <use id="a" transform="translate(-1.9408 14.071)" width="400" height="400" xlink:href="#b"/>
  <use transform="translate(-3.3964 14.071)" width="400" height="400" xlink:href="#a"/>
  <use transform="matrix(1.0318 0 0 1 -18.196 28.142)" width="400" height="400" xlink:href="#a"/>
  <use transform="matrix(1.0697 .015926 -.017039 .99987 -36.839 36.14)" width="400" height="400" xlink:href="#a"/>
  <path d="m229.99 145.75 113.54 32.994 5.3372-4.3668-109.66-29.112-9.2189 0.4852z" fill-rule="evenodd" stroke="#000"/>
  <path d="m257.16 146.24 100.92 21.834 2.9112-6.065-95.585-16.254-8.2485 0.48521z" fill-rule="evenodd" stroke="#000"/>
  <path d="m279.62 143.71 87.721 8.4209 4.8033-9.163-78.342-3.8013-14.182 4.5434z" fill-rule="evenodd" stroke="#000"/>
  <path d="m224.16 147.45 104.32 37.846 8.4911-1.6982-107.96-36.876-4.852 0.72781z" fill-rule="evenodd" stroke="#000"/>
  <path d="m150.66 148.91 93.644 23.29 8.9763-0.2426-96.07-24.503-6.5503 1.4556z" fill-rule="evenodd" stroke="#000"/>
  <path d="m179.04 145.51 86.852 28.384 16.012 4.3668-93.644-33.479-9.2189 0.72781z" fill-rule="evenodd" stroke="#000"/>
  <path d="m203.3 145.51 94.857 35.905 18.438 3.1538-109.17-39.302-4.1242 0.2426z" fill-rule="evenodd" stroke="#000"/>
  <path d="m231.44 174.87-89.278-23.775-12.13 3.3964 87.822 24.745 13.586-4.3668z" fill-rule="evenodd" stroke="#000"/>
  <path d="m210.58 184.57-88.307-27.171-13.101 6.7929 93.159 25.716 8.2485-5.3372z" fill-rule="evenodd" stroke="#000"/>
  <path d="m195.54 196.7-91.704-26.201-8.2485 3.8816 91.704 27.657 8.2485-5.3372z" fill-rule="evenodd" stroke="#000"/>
  <path d="m184.38 211.26-100.44-28.142-4.852 6.3077 102.38 27.657 2.9112-5.8224z" fill-rule="evenodd" stroke="#000"/>
  <path d="m70.355 200.1 103.35 27.657-1.4556 8.2485-109.17-30.083 7.2781-5.8224z" fill-rule="evenodd" stroke="#000"/>
  <path d="m58.71 214.65 107.72 33.964-3.3964 10.674-109.17-36.39 4.852-8.2485z" fill-rule="evenodd" stroke="#000"/>
  <path d="m46.094 235.52 110.14 36.39-2.426 10.189-113.05-39.302 5.3372-7.2781z" fill-rule="evenodd" stroke="#000"/>
  <path d="m34.449 254.92c38.816 14.071 77.633 35.972 116.45 42.213l-0.97041 7.7633c-47.869-7.82-78.927-26.848-118.39-40.272l2.9112-9.7041z" fill-rule="evenodd" stroke="#000"/>
  <path d="m26.201 276.27c40.11 13.909 71.691 36.348 120.33 41.728v3.8816l-124.21-35.42 3.8816-10.189z" fill-rule="evenodd" stroke="#000"/>
  <path d="m17.953 297.14 87.822 20.379 0.48521 3.8816-92.189-14.556 3.8816-9.7041z" fill-rule="evenodd" stroke="#000"/>
  <path d="m23.775 320.43 109.17-0.9704c2.5562-19.534 6.3695-34.04 10.189-48.52l-99.467-3.3964c-7.5494 13.956-13.571 34.024-19.893 52.887z" fill="none" stroke="#fff" stroke-opacity=".94118"/>
  <path d="m47.55 260.26 97.526 2.9112c4.9066-16.793 11.941-32.522 19.408-48.035l-85.396-7.2781c-17.609 23.677-23.878 37.431-31.538 52.402z" fill="none" stroke="#fff" stroke-opacity=".94118"/>
  <path d="m47.55 260.26 97.526 2.9112c4.9066-16.793 11.941-32.522 19.408-48.035l-85.396-7.2781c-17.609 23.677-23.878 37.431-31.538 52.402z" fill="none" stroke="#fff" stroke-opacity=".94118"/>
  <path d="m81.999 203.01 84.426 7.2781c11.7-21.16 28.438-31.067 40.272-39.787l-62.591-9.7041c-19.065 5.7242-50.564 28.697-62.106 42.213z" fill="none" stroke="#fff" stroke-opacity=".94118"/>
  <path d="m152.27 158.37 58.224 10.189c21.404-6.1186 20.674-8.2623 51.432-3.8816l-45.609-10.674c-19.065 0.87218-39.405-0.90035-64.047 4.3668z" fill="none" stroke="#fff" stroke-opacity=".94118"/>
  <path d="m233.87 154 51.432 15.527c32.594 5.6544 43.163 5.8662 62.106-10.189l-48.035-15.041c-13.877 9.4869-33.565 14.407-65.503 9.7041z" fill="none" stroke="#fff"/>
  <path d="m302.77 141.39 48.035 14.556c8.4357-10.053 15.574-24.146 19.893-40.757l-48.52-5.8225c-4.5062 13.599-7.4955 19.569-19.408 32.023z" fill="none" stroke="#fff" stroke-opacity=".94118"/>
  <path d="m323.63 104.51 48.52 4.3668c5.0992-17.851 6.9891-31.423 8.2485-44.154l-50.946 0.4852c-0.71653 14.325-2.5197 27.563-5.8224 39.302z" fill="none" stroke="#fff"/>
 </g>
</svg>
